<svg width="122" height="18" viewBox="0 0 122 18" fill="none" xmlns="http://www.w3.org/2000/svg">
<path d="M10.2977 2.63272L11.6177 5.27273C11.7977 5.64023 12.2777 5.99272 12.6827 6.06023L15.0752 6.45773C16.6052 6.71272 16.9652 7.82273 15.8627 8.91773L14.0027 10.7777C13.6877 11.0927 13.5152 11.7002 13.6127 12.1352L14.1452 14.4377C14.5652 16.2602 13.5977 16.9652 11.9852 16.0127L9.74268 14.6852C9.33768 14.4452 8.67018 14.4452 8.25768 14.6852L6.01518 16.0127C4.41018 16.9652 3.43518 16.2527 3.85518 14.4377L4.38768 12.1352C4.48518 11.7002 4.31268 11.0927 3.99768 10.7777L2.13768 8.91773C1.04268 7.82273 1.39518 6.71272 2.92518 6.45773L5.31768 6.06023C5.71518 5.99272 6.19518 5.64023 6.37518 5.27273L7.69518 2.63272C8.41518 1.20022 9.58518 1.20022 10.2977 2.63272Z" fill="#FFD231"/>
<path d="M36.2977 2.63272L37.6177 5.27273C37.7977 5.64023 38.2777 5.99272 38.6827 6.06023L41.0752 6.45773C42.6052 6.71272 42.9652 7.82273 41.8627 8.91773L40.0027 10.7777C39.6877 11.0927 39.5152 11.7002 39.6127 12.1352L40.1452 14.4377C40.5652 16.2602 39.5977 16.9652 37.9852 16.0127L35.7427 14.6852C35.3377 14.4452 34.6702 14.4452 34.2577 14.6852L32.0152 16.0127C30.4102 16.9652 29.4352 16.2527 29.8552 14.4377L30.3877 12.1352C30.4852 11.7002 30.3127 11.0927 29.9977 10.7777L28.1377 8.91773C27.0427 7.82273 27.3952 6.71272 28.9252 6.45773L31.3177 6.06023C31.7152 5.99272 32.1952 5.64023 32.3752 5.27273L33.6952 2.63272C34.4152 1.20022 35.5852 1.20022 36.2977 2.63272Z" fill="#FFD231"/>
<path d="M62.2977 2.63272L63.6177 5.27273C63.7977 5.64023 64.2777 5.99272 64.6827 6.06023L67.0752 6.45773C68.6052 6.71272 68.9652 7.82273 67.8627 8.91773L66.0027 10.7777C65.6877 11.0927 65.5152 11.7002 65.6127 12.1352L66.1452 14.4377C66.5652 16.2602 65.5977 16.9652 63.9852 16.0127L61.7427 14.6852C61.3377 14.4452 60.6702 14.4452 60.2577 14.6852L58.0152 16.0127C56.4102 16.9652 55.4352 16.2527 55.8552 14.4377L56.3877 12.1352C56.4852 11.7002 56.3127 11.0927 55.9977 10.7777L54.1377 8.91773C53.0427 7.82273 53.3952 6.71272 54.9252 6.45773L57.3177 6.06023C57.7152 5.99272 58.1952 5.64023 58.3752 5.27273L59.6952 2.63272C60.4152 1.20022 61.5852 1.20022 62.2977 2.63272Z" fill="#FFD231"/>
<path d="M88.2977 2.63272L89.6177 5.27273C89.7977 5.64023 90.2777 5.99272 90.6827 6.06023L93.0752 6.45773C94.6052 6.71272 94.9652 7.82273 93.8627 8.91773L92.0027 10.7777C91.6877 11.0927 91.5152 11.7002 91.6127 12.1352L92.1452 14.4377C92.5652 16.2602 91.5977 16.9652 89.9852 16.0127L87.7427 14.6852C87.3377 14.4452 86.6702 14.4452 86.2577 14.6852L84.0152 16.0127C82.4102 16.9652 81.4352 16.2527 81.8552 14.4377L82.3877 12.1352C82.4852 11.7002 82.3127 11.0927 81.9977 10.7777L80.1377 8.91773C79.0427 7.82273 79.3952 6.71272 80.9252 6.45773L83.3177 6.06023C83.7152 5.99272 84.1952 5.64023 84.3752 5.27273L85.6952 2.63272C86.4152 1.20022 87.5852 1.20022 88.2977 2.63272Z" fill="#FFD231"/>
<path d="M114.298 2.63272L115.618 5.27273C115.798 5.64023 116.278 5.99272 116.683 6.06023L119.075 6.45773C120.605 6.71272 120.965 7.82273 119.863 8.91773L118.003 10.7777C117.688 11.0927 117.515 11.7002 117.613 12.1352L118.145 14.4377C118.565 16.2602 117.598 16.9652 115.985 16.0127L113.743 14.6852C113.338 14.4452 112.67 14.4452 112.258 14.6852L110.015 16.0127C108.41 16.9652 107.435 16.2527 107.855 14.4377L108.388 12.1352C108.485 11.7002 108.313 11.0927 107.998 10.7777L106.138 8.91773C105.043 7.82273 105.395 6.71272 106.925 6.45773L109.318 6.06023C109.715 5.99272 110.195 5.64023 110.375 5.27273L111.695 2.63272C112.415 1.20022 113.585 1.20022 114.298 2.63272Z" fill="#FFD231"/>
</svg>
